# xmcd
#
# Track frame offsets:
#	150
#	14355
#	24541
#	37056
#	55376
#	69632
#	83614
#	99728
#
# Disc length: 1444 seconds
#
# Revision: 1
# Processed by: cddbd v1.5.2PL0 Copyright (c) Steve Scherf et al.
# Submitted via: audiograbber 1.83.01
#
DISCID=6505a208
DTITLE=Eugene Harp-Snake - Catfish Blues
DYEAR=2014
DGENRE=Blues
TTITLE0=Nettle Blues
TTITLE1=Freedom
TTITLE2=E.S.D.
TTITLE3=Catfish BLues
TTITLE4=Joyflite
TTITLE5=Purple Palsley Love
TTITLE6=Blue Sky
TTITLE7=Mangrove Jack
EXTD=
EXTT0=
EXTT1=
EXTT2=
EXTT3=
EXTT4=
EXTT5=
EXTT6=
EXTT7=
PLAYORDER=
